# xmcd
# 
# Track frame offsets:
#     150
#     16745
#     30343
#     56594
#     69326
#     84916
#     102119
#     114430
#     137583
#     164643
# 
# Disc length: 2560
# 
# Revision: 3
# Processed by: cddbd v1.5.2PL0 Copyright (c) Steve Scherf et al.
# Submitted via: fre:ac v1.0.17
# 
DISCID=7009fe0a
DTITLE=Mountain Men - Mountain Men chante Brasses CD1
DYEAR=2013
DGENRE=Blues
TTITLE0=Celui qui a mal tourné
TTITLE1=Hécatombe
TTITLE2=Don Juan
TTITLE3=Le fossoyeur
TTITLE4=La complainte des filles de joie
TTITLE5=Dans l'eau de la claire fontaine
TTITLE6=Les Philistins
TTITLE7=Chanson pour l'Auvergnat
TTITLE8=Le petit cheval
TTITLE9=Les copains d'abord
EXTD=
EXTT0=
EXTT1=
EXTT2=
EXTT3=
EXTT4=
EXTT5=
EXTT6=
EXTT7=
EXTT8=
EXTT9=
PLAYORDER=
